<svg width="101" height="24" viewBox="0 0 101 24" fill="none" xmlns="http://www.w3.org/2000/svg">
<path d="M32.4561 2.53333V10H34.3121V2.53333H32.4561ZM35.1227 10C35.9405 10 36.6481 9.84711 37.2454 9.54133C37.8427 9.23556 38.305 8.80533 38.6321 8.25067C38.9592 7.68889 39.1227 7.02756 39.1227 6.26667C39.1227 5.49867 38.9592 4.83733 38.6321 4.28267C38.305 3.728 37.8427 3.29778 37.2454 2.992C36.6481 2.68622 35.9405 2.53333 35.1227 2.53333H33.6507V4.13333H35.0587C35.3432 4.13333 35.617 4.16889 35.8801 4.24C36.1503 4.31111 36.385 4.42844 36.5841 4.592C36.7903 4.75556 36.9539 4.976 37.0747 5.25333C37.1956 5.52356 37.2561 5.86133 37.2561 6.26667C37.2561 6.672 37.1956 7.01333 37.0747 7.29067C36.9539 7.56089 36.7903 7.77778 36.5841 7.94133C36.385 8.10489 36.1503 8.22222 35.8801 8.29333C35.617 8.36444 35.3432 8.4 35.0587 8.4H33.6507V10H35.1227ZM44.1403 10H47.9057V8.51733H44.1403V10ZM44.1403 4.016H47.9057V2.53333H44.1403V4.016ZM44.1403 6.8H47.6923V5.34933H44.1403V6.8ZM42.9457 2.53333V10H44.6737V2.53333H42.9457ZM53.5754 6.26667C53.5754 5.80444 53.6785 5.40978 53.8847 5.08267C54.091 4.75556 54.3612 4.50667 54.6954 4.336C55.0367 4.16533 55.4101 4.08 55.8154 4.08C56.171 4.08 56.4839 4.12622 56.7541 4.21867C57.0243 4.304 57.2661 4.42489 57.4794 4.58133C57.6927 4.73067 57.8812 4.89067 58.0447 5.06133V3.12C57.7461 2.88533 57.419 2.70044 57.0634 2.56533C56.7079 2.43022 56.2563 2.36267 55.7087 2.36267C55.1114 2.36267 54.5603 2.45511 54.0554 2.64C53.5505 2.82489 53.1167 3.09156 52.7541 3.44C52.3914 3.78844 52.1105 4.20089 51.9114 4.67733C51.7123 5.15378 51.6127 5.68356 51.6127 6.26667C51.6127 6.84978 51.7123 7.37956 51.9114 7.856C52.1105 8.33244 52.3914 8.74489 52.7541 9.09333C53.1167 9.44178 53.5505 9.70844 54.0554 9.89333C54.5603 10.0782 55.1114 10.1707 55.7087 10.1707C56.2563 10.1707 56.7079 10.1031 57.0634 9.968C57.419 9.83289 57.7461 9.648 58.0447 9.41333V7.472C57.8812 7.64267 57.6927 7.80267 57.4794 7.952C57.2661 8.10133 57.0243 8.22222 56.7541 8.31467C56.4839 8.40711 56.171 8.45333 55.8154 8.45333C55.4101 8.45333 55.0367 8.368 54.6954 8.19733C54.3612 8.02667 54.091 7.77778 53.8847 7.45067C53.6785 7.11644 53.5754 6.72178 53.5754 6.26667ZM63.6679 6.26667C63.6679 5.82578 63.7532 5.43822 63.9239 5.104C64.1017 4.76267 64.347 4.496 64.6599 4.304C64.9799 4.112 65.3532 4.016 65.7799 4.016C66.2137 4.016 66.587 4.112 66.8999 4.304C67.2128 4.496 67.4546 4.76267 67.6252 5.104C67.7959 5.43822 67.8812 5.82578 67.8812 6.26667C67.8812 6.70756 67.7924 7.09867 67.6146 7.44C67.4439 7.77422 67.1986 8.03733 66.8786 8.22933C66.5657 8.42133 66.1995 8.51733 65.7799 8.51733C65.3532 8.51733 64.9799 8.42133 64.6599 8.22933C64.347 8.03733 64.1017 7.77422 63.9239 7.44C63.7532 7.09867 63.6679 6.70756 63.6679 6.26667ZM61.7586 6.26667C61.7586 6.84267 61.8546 7.37244 62.0466 7.856C62.2457 8.33956 62.523 8.75911 62.8786 9.11467C63.2412 9.47022 63.6679 9.74756 64.1586 9.94667C64.6492 10.1387 65.1897 10.2347 65.7799 10.2347C66.363 10.2347 66.8999 10.1387 67.3906 9.94667C67.8812 9.74756 68.3044 9.47022 68.6599 9.11467C69.0226 8.75911 69.2999 8.33956 69.4919 7.856C69.691 7.37244 69.7906 6.84267 69.7906 6.26667C69.7906 5.69067 69.691 5.16444 69.4919 4.688C69.2928 4.21156 69.0119 3.79911 68.6492 3.45067C68.2866 3.10222 67.8599 2.83556 67.3692 2.65067C66.8857 2.45867 66.3559 2.36267 65.7799 2.36267C65.211 2.36267 64.6812 2.45867 64.1906 2.65067C63.6999 2.83556 63.2732 3.10222 62.9106 3.45067C62.5479 3.79911 62.2635 4.21156 62.0572 4.688C61.8581 5.16444 61.7586 5.69067 61.7586 6.26667ZM73.6123 2.53333V10H75.4683V2.53333H73.6123ZM76.279 10C77.0968 10 77.8043 9.84711 78.4017 9.54133C78.999 9.23556 79.4612 8.80533 79.7883 8.25067C80.1154 7.68889 80.279 7.02756 80.279 6.26667C80.279 5.49867 80.1154 4.83733 79.7883 4.28267C79.4612 3.728 78.999 3.29778 78.4017 2.992C77.8043 2.68622 77.0968 2.53333 76.279 2.53333H74.807V4.13333H76.215C76.4994 4.13333 76.7732 4.16889 77.0363 4.24C77.3065 4.31111 77.5412 4.42844 77.7403 4.592C77.9465 4.75556 78.1101 4.976 78.231 5.25333C78.3519 5.52356 78.4123 5.86133 78.4123 6.26667C78.4123 6.672 78.3519 7.01333 78.231 7.29067C78.1101 7.56089 77.9465 7.77778 77.7403 7.94133C77.5412 8.10489 77.3065 8.22222 77.0363 8.29333C76.7732 8.36444 76.4994 8.4 76.215 8.4H74.807V10H76.279ZM85.2966 10H89.0619V8.51733H85.2966V10ZM85.2966 4.016H89.0619V2.53333H85.2966V4.016ZM85.2966 6.8H88.8486V5.34933H85.2966V6.8ZM84.1019 2.53333V10H85.8299V2.53333H84.1019ZM93.1957 2.53333V10H95.0517V2.53333H93.1957ZM95.8623 10C96.6801 10 97.3877 9.84711 97.985 9.54133C98.5823 9.23556 99.0445 8.80533 99.3717 8.25067C99.6988 7.68889 99.8623 7.02756 99.8623 6.26667C99.8623 5.49867 99.6988 4.83733 99.3717 4.28267C99.0445 3.728 98.5823 3.29778 97.985 2.992C97.3877 2.68622 96.6801 2.53333 95.8623 2.53333H94.3903V4.13333H95.7983C96.0828 4.13333 96.3565 4.16889 96.6197 4.24C96.8899 4.31111 97.1245 4.42844 97.3237 4.592C97.5299 4.75556 97.6934 4.976 97.8143 5.25333C97.9352 5.52356 97.9957 5.86133 97.9957 6.26667C97.9957 6.672 97.9352 7.01333 97.8143 7.29067C97.6934 7.56089 97.5299 7.77778 97.3237 7.94133C97.1245 8.10489 96.8899 8.22222 96.6197 8.29333C96.3565 8.36444 96.0828 8.4 95.7983 8.4H94.3903V10H95.8623ZM32.4561 14.5333V22H37.2561V20.4533H34.2587V14.5333H32.4561ZM42.2544 20.56H46.2011L46.0837 19.184H42.3824L42.2544 20.56ZM44.2064 17.2747L45.2624 19.696L45.1984 20.1547L46.0944 22H48.1424L44.2064 14.064L40.2811 22H42.3184L43.2464 20.08L43.1611 19.6853L44.2064 17.2747ZM52.9355 18.288H54.3328C54.8519 18.288 55.3071 18.2169 55.6982 18.0747C56.0964 17.9253 56.4093 17.712 56.6368 17.4347C56.8715 17.1573 56.9888 16.8231 56.9888 16.432C56.9888 16.0053 56.8715 15.6533 56.6368 15.376C56.4093 15.0916 56.0964 14.8818 55.6982 14.7467C55.3071 14.6044 54.8519 14.5333 54.3328 14.5333H51.5915V22H54.5142C55.1044 22 55.6164 21.9289 56.0502 21.7867C56.4839 21.6373 56.8182 21.4098 57.0528 21.104C57.2946 20.7982 57.4155 20.3964 57.4155 19.8987C57.4155 19.5218 57.3302 19.2018 57.1595 18.9387C56.9959 18.6684 56.7755 18.448 56.4982 18.2773C56.2208 18.0996 55.9115 17.9716 55.5702 17.8933C55.2288 17.8151 54.8768 17.776 54.5142 17.776H52.9355V18.7573H54.3115C54.4893 18.7573 54.6493 18.7751 54.7915 18.8107C54.9408 18.8391 55.0724 18.8889 55.1862 18.96C55.2999 19.0311 55.3888 19.1236 55.4528 19.2373C55.5168 19.3511 55.5488 19.4862 55.5488 19.6427C55.5488 19.8844 55.4919 20.0764 55.3782 20.2187C55.2715 20.3538 55.1257 20.4533 54.9408 20.5173C54.7559 20.5742 54.5462 20.6027 54.3115 20.6027H53.3942V15.9307H54.1408C54.4537 15.9307 54.6955 15.9947 54.8662 16.1227C55.0368 16.2507 55.1222 16.4427 55.1222 16.6987C55.1222 16.8693 55.0831 17.0151 55.0048 17.136C54.9266 17.2498 54.8128 17.3387 54.6635 17.4027C54.5213 17.4667 54.3471 17.4987 54.1408 17.4987H52.9355V18.288ZM62.1628 19.376L60.9042 20.2827C61.0748 20.6382 61.3131 20.9653 61.6188 21.264C61.9246 21.5627 62.2837 21.8009 62.6962 21.9787C63.1157 22.1493 63.5673 22.2347 64.0508 22.2347C64.3993 22.2347 64.7371 22.1813 65.0642 22.0747C65.3984 21.9751 65.6935 21.8258 65.9495 21.6267C66.2126 21.4276 66.4188 21.1822 66.5682 20.8907C66.7246 20.592 66.8028 20.2542 66.8028 19.8773C66.8028 19.5644 66.7531 19.2871 66.6535 19.0453C66.5539 18.8036 66.4153 18.5902 66.2375 18.4053C66.0668 18.2204 65.8677 18.064 65.6402 17.936C65.4126 17.8009 65.1673 17.6836 64.9042 17.584C64.5557 17.4631 64.2571 17.3493 64.0082 17.2427C63.7664 17.136 63.5779 17.0187 63.4428 16.8907C63.3148 16.7627 63.2508 16.6133 63.2508 16.4427C63.2508 16.2791 63.3184 16.144 63.4535 16.0373C63.5886 15.9236 63.7842 15.8667 64.0402 15.8667C64.2322 15.8667 64.4099 15.9058 64.5735 15.984C64.7442 16.0551 64.8971 16.1582 65.0322 16.2933C65.1744 16.4213 65.2988 16.5742 65.4055 16.752L66.7815 15.984C66.6535 15.728 66.4686 15.4756 66.2268 15.2267C65.9851 14.9778 65.6793 14.7716 65.3095 14.608C64.9468 14.4444 64.5166 14.3627 64.0188 14.3627C63.5353 14.3627 63.0944 14.448 62.6962 14.6187C62.3051 14.7822 61.9922 15.024 61.7575 15.344C61.5299 15.664 61.4162 16.0444 61.4162 16.4853C61.4162 16.8551 61.4837 17.1716 61.6188 17.4347C61.7539 17.6907 61.9246 17.9111 62.1308 18.096C62.3371 18.2738 62.5539 18.4196 62.7815 18.5333C63.0162 18.6471 63.2224 18.736 63.4002 18.8C63.7628 18.9351 64.0544 19.056 64.2748 19.1627C64.4953 19.2693 64.6553 19.3831 64.7548 19.504C64.8544 19.6178 64.9042 19.7707 64.9042 19.9627C64.9042 20.1902 64.8188 20.3716 64.6482 20.5067C64.4775 20.6347 64.2606 20.6987 63.9975 20.6987C63.7486 20.6987 63.5104 20.6453 63.2828 20.5387C63.0624 20.432 62.8562 20.2791 62.6642 20.08C62.4793 19.8809 62.3122 19.6462 62.1628 19.376Z" fill="white"/>
<rect x="16.5769" y="17.051" width="4.61538" height="4.61538" rx="2.30769" fill="white"/>
<rect y="1.66663" width="17.7346" height="4.57308" rx="2.28654" fill="white"/>
<rect y="17.051" width="14.6154" height="4.61538" rx="2.30769" fill="white"/>
<rect y="9.35889" width="22.3077" height="4.61538" rx="2.30769" fill="white"/>
</svg>
